<svg width="303" height="252" viewBox="0 0 303 252" fill="none" xmlns="http://www.w3.org/2000/svg">
<g filter="url(#filter0_di_89_590)">
<path fill-rule="evenodd" clip-rule="evenodd" d="M9 16.5713H20.7917C32.5833 16.5713 56.1667 16.5713 79.75 55.1427C103.333 93.7141 126.917 170.857 150.5 188C174.083 205.143 197.667 162.286 221.25 153.714C244.833 145.143 268.417 170.857 280.208 183.714L292 196.571V248H280.208C268.417 248 244.833 248 221.25 248C197.667 248 174.083 248 150.5 248C126.917 248 103.333 248 79.75 248C56.1667 248 32.5833 248 20.7917 248H9V16.5713Z" fill="#3B3C36"/>
<path fill-rule="evenodd" clip-rule="evenodd" d="M9 16.5713H20.7917C32.5833 16.5713 56.1667 16.5713 79.75 55.1427C103.333 93.7141 126.917 170.857 150.5 188C174.083 205.143 197.667 162.286 221.25 153.714C244.833 145.143 268.417 170.857 280.208 183.714L292 196.571V248H280.208C268.417 248 244.833 248 221.25 248C197.667 248 174.083 248 150.5 248C126.917 248 103.333 248 79.75 248C56.1667 248 32.5833 248 20.7917 248H9V16.5713Z" stroke="black"/>
</g>
<defs>
<filter id="filter0_di_89_590" x="0" y="0.571289" width="303" height="251.429" filterUnits="userSpaceOnUse" color-interpolation-filters="sRGB">
<feFlood flood-opacity="0" result="BackgroundImageFix"/>
<feColorMatrix in="SourceAlpha" type="matrix" values="0 0 0 0 0 0 0 0 0 0 0 0 0 0 0 0 0 0 127 0" result="hardAlpha"/>
<feOffset dx="1" dy="-6"/>
<feGaussianBlur stdDeviation="5"/>
<feComposite in2="hardAlpha" operator="out"/>
<feColorMatrix type="matrix" values="0 0 0 0 0 0 0 0 0 0 0 0 0 0 0 0 0 0 0.25 0"/>
<feBlend mode="normal" in2="BackgroundImageFix" result="effect1_dropShadow_89_590"/>
<feBlend mode="normal" in="SourceGraphic" in2="effect1_dropShadow_89_590" result="shape"/>
<feColorMatrix in="SourceAlpha" type="matrix" values="0 0 0 0 0 0 0 0 0 0 0 0 0 0 0 0 0 0 127 0" result="hardAlpha"/>
<feOffset dx="2" dy="-3"/>
<feGaussianBlur stdDeviation="3.5"/>
<feComposite in2="hardAlpha" operator="arithmetic" k2="-1" k3="1"/>
<feColorMatrix type="matrix" values="0 0 0 0 0 0 0 0 0 0 0 0 0 0 0 0 0 0 0.88 0"/>
<feBlend mode="normal" in2="shape" result="effect2_innerShadow_89_590"/>
</filter>
</defs>
</svg>
