<?xml version="1.0" standalone="no"?><svg xmlns="http://www.w3.org/2000/svg" viewBox="0 0 1440 320"><path fill="#0099ff" fill-opacity="1" d="M0,96L40,106.7C80,117,160,139,240,122.7C320,107,400,53,480,42.7C560,32,640,64,720,106.7C800,149,880,203,960,234.7C1040,267,1120,277,1200,245.3C1280,213,1360,139,1400,101.3L1440,64L1440,320L1400,320C1360,320,1280,320,1200,320C1120,320,1040,320,960,320C880,320,800,320,720,320C640,320,560,320,480,320C400,320,320,320,240,320C160,320,80,320,40,320L0,320Z"></path></svg>