<svg xmlns="http://www.w3.org/2000/svg" version="1.1" xmlns:xlink="http://www.w3.org/1999/xlink" xmlns:svgjs="http://svgjs.dev/svgjs" width="1000" height="1029" viewBox="0 0 1000 1029"><g transform="matrix(1,0,0,1,-0.30391972598499706,0.4165991902833639)"><svg viewBox="0 0 240 247" data-background-color="#ffffff" preserveAspectRatio="xMidYMid meet" height="1029" width="1000" xmlns="http://www.w3.org/2000/svg" xmlns:xlink="http://www.w3.org/1999/xlink"><g id="tight-bounds" transform="matrix(1,0,0,1,0.07294073423639702,-0.09999999999999432)"><svg viewBox="0 0 239.8541185315272 247.2" height="247.2" width="239.8541185315272"><g><svg viewBox="0 0 397.4976 409.6715425258966" height="247.2" width="239.8541185315272"><g><rect width="397.4976" height="6.957632585991998" x="0" y="230.72753608352485" fill="#755bb4" opacity="1" stroke-width="0" stroke="transparent" fill-opacity="1" class="rect-o-0" data-fill-palette-color="primary" rx="1%" id="o-0" data-palette-color="#755bb4"></rect></g><g transform="matrix(1,0,0,1,0.9887999999999693,255.89886653860586)"><svg viewBox="0 0 395.52000000000004 153.77267598729077" height="153.77267598729077" width="395.52000000000004"><g id="textblocktransform"><svg viewBox="0 0 395.52000000000004 153.77267598729077" height="153.77267598729077" width="395.52000000000004" id="textblock"><g><svg viewBox="0 0 395.52000000000004 77.15184037805197" height="77.15184037805197" width="395.52000000000004"><g transform="matrix(1,0,0,1,0,0)"><svg width="395.52000000000004" viewBox="3.799999952316284 -36.849998474121094 190.42999267578125 37.14999771118164" height="77.15184037805197" data-palette-color="#755bb4"><path d="M21.35 0L5.3 0Q4.75 0 4.28-0.33 3.8-0.65 3.8-1.3L3.8-1.3 3.8-35.35Q3.8-36 4.3-36.27 4.8-36.55 5.45-36.55L5.45-36.55Q6.05-36.55 6.58-36.27 7.1-36 7.1-35.35L7.1-35.35 7.1-3.05 21.35-3.05Q21.95-3.05 22.2-2.58 22.45-2.1 22.45-1.55L22.45-1.55Q22.45-0.95 22.2-0.48 21.95 0 21.35 0L21.35 0ZM46.2 0L28.4 0Q27.85 0 27.37-0.33 26.9-0.65 26.9-1.3L26.9-1.3 26.9-35.3Q26.9-35.9 27.37-36.23 27.85-36.55 28.4-36.55L28.4-36.55 46.2-36.55Q46.85-36.55 47.15-36.08 47.45-35.6 47.45-35.1L47.45-35.1Q47.45-34.45 47.12-33.98 46.8-33.5 46.2-33.5L46.2-33.5 30.2-33.5 30.2-19.75 38.05-19.75Q38.65-19.75 38.97-19.3 39.3-18.85 39.3-18.25L39.3-18.25Q39.3-17.8 39-17.35 38.7-16.9 38.05-16.9L38.05-16.9 30.2-16.9 30.2-3.05 46.2-3.05Q46.8-3.05 47.12-2.6 47.45-2.15 47.45-1.5L47.45-1.5Q47.45-0.95 47.15-0.48 46.85 0 46.2 0L46.2 0ZM51.4 0L51.4 0Q51 0 50.55-0.18 50.1-0.35 49.8-0.68 49.5-1 49.5-1.4L49.5-1.4Q49.5-1.6 49.55-1.75L49.55-1.75 60-35.7Q60.2-36.3 60.75-36.58 61.3-36.85 61.95-36.85L61.95-36.85Q62.65-36.85 63.22-36.55 63.8-36.25 63.95-35.7L63.95-35.7 74.34-1.75Q74.4-1.6 74.4-1.45L74.4-1.45Q74.4-1.05 74.09-0.73 73.8-0.4 73.34-0.2 72.9 0 72.4 0L72.4 0Q72 0 71.65-0.2 71.3-0.4 71.2-0.85L71.2-0.85 68.84-8.55 55.05-8.55 52.75-0.85Q52.6-0.4 52.25-0.2 51.9 0 51.4 0ZM61.95-31.55L55.85-11.4 68-11.4 61.95-31.55ZM98.29 0.05L98.29 0.05Q97.74 0.05 97.29-0.5 96.84-1.05 96.59-1.65L96.59-1.65 88.84-16.65 82.49-16.65 82.49-1.3Q82.49-0.65 81.97-0.33 81.44 0 80.84 0L80.84 0Q80.19 0 79.69-0.33 79.19-0.65 79.19-1.3L79.19-1.3 79.19-35.35Q79.19-35.85 79.54-36.18 79.89-36.5 80.44-36.55L80.44-36.55 89.29-36.55Q92.24-36.55 94.69-35.65 97.14-34.75 98.62-32.63 100.09-30.5 100.09-26.7L100.09-26.7Q100.09-23.6 99.07-21.6 98.04-19.6 96.27-18.53 94.49-17.45 92.29-17.05L92.29-17.05 99.99-2.25Q100.14-2.1 100.17-1.93 100.19-1.75 100.19-1.6L100.19-1.6Q100.19-1.2 99.92-0.8 99.64-0.4 99.19-0.18 98.74 0.05 98.29 0.05ZM82.49-33.5L82.49-19.5 89.29-19.5Q92.64-19.5 94.72-21.13 96.79-22.75 96.79-26.55L96.79-26.55Q96.79-30.3 94.72-31.9 92.64-33.5 89.29-33.5L89.29-33.5 82.49-33.5ZM107.24 0L107.24 0Q106.59 0 106.09-0.33 105.59-0.65 105.59-1.3L105.59-1.3 105.59-35.3Q105.59-36 106.09-36.27 106.59-36.55 107.24-36.55L107.24-36.55Q107.84-36.55 108.29-36.23 108.74-35.9 109.14-35.4 109.54-34.9 109.84-34.25L109.84-34.25 123.34-7.65 123.34-35.35Q123.34-36 123.84-36.27 124.34-36.55 124.99-36.55L124.99-36.55Q125.59-36.55 126.12-36.27 126.64-36 126.64-35.35L126.64-35.35 126.64-1.3Q126.64-0.65 126.12-0.33 125.59 0 124.99 0L124.99 0Q124.29 0 123.74-0.6 123.19-1.2 122.79-1.9L122.79-1.9 108.89-28.95 108.89-1.3Q108.89-0.65 108.37-0.33 107.84 0 107.24 0ZM135.89 0L135.89 0Q135.24 0 134.74-0.33 134.24-0.65 134.24-1.3L134.24-1.3 134.24-35.35Q134.24-35.95 134.74-36.25 135.24-36.55 135.89-36.55L135.89-36.55Q136.49-36.55 137.01-36.25 137.54-35.95 137.54-35.35L137.54-35.35 137.54-1.3Q137.54-0.65 137.01-0.33 136.49 0 135.89 0ZM146.79 0L146.79 0Q146.14 0 145.64-0.33 145.14-0.65 145.14-1.3L145.14-1.3 145.14-35.3Q145.14-36 145.64-36.27 146.14-36.55 146.79-36.55L146.79-36.55Q147.39-36.55 147.84-36.23 148.29-35.9 148.69-35.4 149.09-34.9 149.39-34.25L149.39-34.25 162.89-7.65 162.89-35.35Q162.89-36 163.39-36.27 163.89-36.55 164.54-36.55L164.54-36.55Q165.14-36.55 165.66-36.27 166.19-36 166.19-35.35L166.19-35.35 166.19-1.3Q166.19-0.65 165.66-0.33 165.14 0 164.54 0L164.54 0Q163.84 0 163.29-0.6 162.74-1.2 162.34-1.9L162.34-1.9 148.44-28.95 148.44-1.3Q148.44-0.65 147.91-0.33 147.39 0 146.79 0ZM183.78 0.3L183.78 0.3Q180.88 0.3 178.53-0.75 176.18-1.8 174.81-4.15 173.43-6.5 173.43-10.4L173.43-10.4 173.43-25.9Q173.43-29.75 174.81-32.1 176.18-34.45 178.51-35.5 180.83-36.55 183.73-36.55L183.73-36.55Q186.93-36.55 189.28-35.43 191.63-34.3 192.93-32.35 194.23-30.4 194.23-27.9L194.23-27.9Q194.23-26.95 193.78-26.58 193.33-26.2 192.58-26.2L192.58-26.2Q191.93-26.2 191.46-26.5 190.98-26.8 190.93-27.45L190.93-27.45Q190.68-29.4 189.83-30.75 188.98-32.1 187.48-32.8 185.98-33.5 183.78-33.5L183.78-33.5Q180.43-33.5 178.58-31.65 176.73-29.8 176.73-25.9L176.73-25.9 176.73-10.4Q176.73-6.5 178.58-4.63 180.43-2.75 183.78-2.75L183.78-2.75Q187.13-2.75 189.03-4.63 190.93-6.5 190.93-10.4L190.93-10.4 190.93-16.35 184.23-16.35Q183.63-16.35 183.31-16.8 182.98-17.25 182.98-17.8L182.98-17.8Q182.98-18.3 183.31-18.75 183.63-19.2 184.23-19.2L184.23-19.2 192.98-19.2Q193.58-19.2 193.91-18.82 194.23-18.45 194.23-17.9L194.23-17.9 194.23-10.4Q194.23-6.5 192.83-4.15 191.43-1.8 189.08-0.75 186.73 0.3 183.78 0.3Z" opacity="1" transform="matrix(1,0,0,1,0,0)" fill="#755bb4" class="undefined-text-0" data-fill-palette-color="primary" id="text-0"></path></svg></g></svg></g><g transform="matrix(1,0,0,1,0,95.36553824714098)"><svg viewBox="0 0 395.52000000000004 58.40713774014979" height="58.40713774014979" width="395.52000000000004"><g transform="matrix(1,0,0,1,0,0)"><svg width="395.52000000000004" viewBox="4.449999809265137 -37.849998474121094 307.0699768066406 45.349998474121094" height="58.40713774014979" data-palette-color="#755bb4"><path d="M9.9 0L4.45 0 4.45-36.25 9.9-36.25 9.9-20.85 28.05-20.85 28.05-36.25 33.55-36.25Q33.55-35.6 33.55-33.83 33.55-32.05 33.55-29.6 33.55-27.15 33.55-24.18 33.55-21.2 33.52-18.13 33.5-15.05 33.5-12.08 33.5-9.1 33.5-6.65 33.5-4.2 33.5-2.43 33.5-0.65 33.5 0L33.5 0 28.05 0 28.05-15.65 9.9-15.65 9.9 0ZM40-36.25L63.55-36.25 63.55-31.05 54.4-31.05 54.4 0 48.95 0 48.95-31.05 40-31.05 40-36.25ZM70 0L70-37.85Q70.45-37.15 71.87-35.18 73.3-33.2 75.17-30.6 77.05-28 79.15-25.08 81.25-22.15 83.09-19.58 84.95-17 86.32-15.1 87.7-13.2 88.15-12.6L88.15-12.6Q88.3-12.85 89.09-13.95 89.9-15.05 91.07-16.7 92.25-18.35 93.75-20.43 95.25-22.5 96.82-24.68 98.4-26.85 99.92-29 101.44-31.15 102.75-32.93 104.05-34.7 104.97-36.02 105.9-37.35 106.3-37.85L106.3-37.85 106.3 0 100.5 0 100.5-20.3Q100.5-20.7 100.57-21.15 100.65-21.6 100.65-21.8L100.65-21.8Q100.19-21.2 99.22-19.78 98.25-18.35 96.97-16.53 95.7-14.7 94.3-12.68 92.9-10.65 91.65-8.85 90.4-7.05 89.45-5.68 88.5-4.3 88.15-3.75L88.15-3.75Q87.8-4.2 86.77-5.63 85.75-7.05 84.37-8.95 83-10.85 81.47-13 79.95-15.15 78.65-17 77.34-18.85 76.4-20.18 75.45-21.5 75.3-21.8L75.3-21.8Q75.3-21.6 75.37-21.15 75.45-20.7 75.45-20.3L75.45-20.3 75.45 0 70 0ZM138.69 0L115.19 0 115.19-36.25 120.69-36.25 120.69-5.2 138.69-5.2 138.69 0ZM173.24-7.55L175.54-2.6Q174.94-2.15 173.86-1.63 172.79-1.1 171.34-0.65 169.89-0.2 168.11 0.1 166.34 0.4 164.34 0.4L164.34 0.4Q160.09 0.4 156.71-1.07 153.34-2.55 150.99-5.05 148.64-7.55 147.39-10.85 146.14-14.15 146.14-17.85L146.14-17.85Q146.14-21.95 147.61-25.4 149.09-28.85 151.64-31.35 154.19-33.85 157.61-35.25 161.04-36.65 164.89-36.65L164.89-36.65Q166.34-36.65 167.84-36.45 169.34-36.25 170.66-35.9 171.99-35.55 173.01-35.08 174.04-34.6 174.59-34.1L174.59-34.1Q174.19-33.5 173.96-33.1 173.74-32.7 173.49-32.27 173.24-31.85 172.94-31.3 172.64-30.75 172.14-29.85L172.14-29.85Q171.49-30.3 170.61-30.6 169.74-30.9 168.79-31.1 167.84-31.3 166.86-31.4 165.89-31.5 165.09-31.5L165.09-31.5Q162.19-31.5 159.71-30.43 157.24-29.35 155.44-27.53 153.64-25.7 152.61-23.3 151.59-20.9 151.59-18.3L151.59-18.3Q151.59-15.75 152.56-13.4 153.54-11.05 155.26-9.2 156.99-7.35 159.41-6.25 161.84-5.15 164.74-5.15L164.74-5.15Q166.29-5.15 167.74-5.45 169.19-5.75 170.36-6.15 171.54-6.55 172.31-6.95 173.09-7.35 173.24-7.55L173.24-7.55ZM201.29-34.25L201.29-34.25 199.34-29.8Q197.29-30.55 195.26-31 193.24-31.45 191.39-31.45L191.39-31.45Q188.24-31.45 186.36-30.15 184.49-28.85 184.49-26.85L184.49-26.85Q184.49-25.15 185.84-24.13 187.19-23.1 189.19-22.28 191.19-21.45 193.54-20.63 195.89-19.8 197.89-18.5 199.89-17.2 201.24-15.23 202.59-13.25 202.59-10.15L202.59-10.15Q202.59-7.75 201.71-5.83 200.84-3.9 199.11-2.5 197.39-1.1 194.81-0.35 192.24 0.4 188.79 0.4L188.79 0.4Q186.59 0.4 184.81 0.1 183.04-0.2 181.61-0.68 180.19-1.15 179.11-1.7 178.04-2.25 177.29-2.7L177.29-2.7 179.69-7.45Q181.69-6.3 184.14-5.6 186.59-4.9 188.59-4.9L188.59-4.9Q189.59-4.9 191.06-5.15 192.54-5.4 193.89-6.03 195.24-6.65 196.21-7.7 197.19-8.75 197.19-10.35L197.19-10.35Q197.19-11.8 196.41-12.83 195.64-13.85 194.36-14.63 193.09-15.4 191.46-16.03 189.84-16.65 188.14-17.32 186.44-18 184.81-18.75 183.19-19.5 181.91-20.58 180.64-21.65 179.86-23.08 179.09-24.5 179.09-26.5L179.09-26.5Q179.09-28.35 179.84-30.15 180.59-31.95 182.09-33.35 183.59-34.75 185.81-35.6 188.04-36.45 190.99-36.45L190.99-36.45Q192.79-36.45 194.51-36.15 196.24-35.85 197.64-35.48 199.04-35.1 200.01-34.75 200.99-34.4 201.29-34.25ZM229.53-34.25L229.53-34.25 227.58-29.8Q225.53-30.55 223.51-31 221.48-31.45 219.63-31.45L219.63-31.45Q216.48-31.45 214.61-30.15 212.73-28.85 212.73-26.85L212.73-26.85Q212.73-25.15 214.08-24.13 215.43-23.1 217.43-22.28 219.43-21.45 221.78-20.63 224.13-19.8 226.13-18.5 228.13-17.2 229.48-15.23 230.83-13.25 230.83-10.15L230.83-10.15Q230.83-7.75 229.96-5.83 229.08-3.9 227.36-2.5 225.63-1.1 223.06-0.35 220.48 0.4 217.03 0.4L217.03 0.4Q214.83 0.4 213.06 0.1 211.28-0.2 209.86-0.68 208.43-1.15 207.36-1.7 206.28-2.25 205.53-2.7L205.53-2.7 207.93-7.45Q209.93-6.3 212.38-5.6 214.83-4.9 216.83-4.9L216.83-4.9Q217.83-4.9 219.31-5.15 220.78-5.4 222.13-6.03 223.48-6.65 224.46-7.7 225.43-8.75 225.43-10.35L225.43-10.35Q225.43-11.8 224.66-12.83 223.88-13.85 222.61-14.63 221.33-15.4 219.71-16.03 218.08-16.65 216.38-17.32 214.68-18 213.06-18.75 211.43-19.5 210.16-20.58 208.88-21.65 208.11-23.08 207.33-24.5 207.33-26.5L207.33-26.5Q207.33-28.35 208.08-30.15 208.83-31.95 210.33-33.35 211.83-34.75 214.06-35.6 216.28-36.45 219.23-36.45L219.23-36.45Q221.03-36.45 222.76-36.15 224.48-35.85 225.88-35.48 227.28-35.1 228.26-34.75 229.23-34.4 229.53-34.25ZM235.73 7.5L235.73 7.5 235.73 2.35Q239.23 2.15 241.45-0.05 243.68-2.25 243.68-6.9L243.68-6.9 243.68-36.25 249.18-36.25 249.18-6.75Q249.18-3.4 248.18-0.8 247.18 1.8 245.38 3.63 243.58 5.45 241.1 6.43 238.63 7.4 235.73 7.5ZM253.58-36.25L258.98-36.25Q259.33-35.4 260.13-33.48 260.93-31.55 261.95-29.1 262.98-26.65 264.1-23.9 265.23-21.15 266.23-18.7 267.23-16.25 268.03-14.33 268.83-12.4 269.18-11.55L269.18-11.55Q269.23-11.45 269.43-10.85 269.63-10.25 269.73-9.8L269.73-9.8 270.23-11.55Q270.58-12.4 271.38-14.33 272.18-16.25 273.18-18.7 274.18-21.15 275.3-23.9 276.43-26.65 277.45-29.1 278.48-31.55 279.28-33.48 280.08-35.4 280.43-36.25L280.43-36.25 285.83-36.25Q285.53-35.55 284.75-33.73 283.98-31.9 282.88-29.3 281.78-26.7 280.45-23.6 279.13-20.5 277.75-17.3 276.38-14.1 275.05-11 273.73-7.9 272.65-5.3 271.58-2.7 270.8-0.88 270.03 0.95 269.73 1.65L269.73 1.65 253.58-36.25ZM310.22-34.25L310.22-34.25 308.27-29.8Q306.22-30.55 304.2-31 302.17-31.45 300.32-31.45L300.32-31.45Q297.17-31.45 295.3-30.15 293.42-28.85 293.42-26.85L293.42-26.85Q293.42-25.15 294.77-24.13 296.12-23.1 298.12-22.28 300.12-21.45 302.47-20.63 304.82-19.8 306.82-18.5 308.82-17.2 310.17-15.23 311.52-13.25 311.52-10.15L311.52-10.15Q311.52-7.75 310.65-5.83 309.77-3.9 308.05-2.5 306.32-1.1 303.75-0.35 301.17 0.4 297.72 0.4L297.72 0.4Q295.52 0.4 293.75 0.1 291.97-0.2 290.55-0.68 289.12-1.15 288.05-1.7 286.97-2.25 286.22-2.7L286.22-2.7 288.62-7.45Q290.62-6.3 293.07-5.6 295.52-4.9 297.52-4.9L297.52-4.9Q298.52-4.9 300-5.15 301.47-5.4 302.82-6.03 304.17-6.65 305.15-7.7 306.12-8.75 306.12-10.35L306.12-10.35Q306.12-11.8 305.35-12.83 304.57-13.85 303.3-14.63 302.02-15.4 300.4-16.03 298.77-16.65 297.07-17.32 295.37-18 293.75-18.75 292.12-19.5 290.85-20.58 289.57-21.65 288.8-23.08 288.02-24.5 288.02-26.5L288.02-26.5Q288.02-28.35 288.77-30.15 289.52-31.95 291.02-33.35 292.52-34.75 294.75-35.6 296.97-36.45 299.92-36.45L299.92-36.45Q301.72-36.45 303.45-36.15 305.17-35.85 306.57-35.48 307.97-35.1 308.95-34.75 309.92-34.4 310.22-34.25Z" opacity="1" transform="matrix(1,0,0,1,0,0)" fill="#755bb4" class="undefined-text-1" data-fill-palette-color="secondary" id="text-1"></path></svg></g></svg></g></svg></g></svg></g><g transform="matrix(1,0,0,1,78.14030543597296,0)"><svg viewBox="0 0 241.21698912805405 212.51383821443585" height="212.51383821443585" width="241.21698912805405"><g><svg xmlns="http://www.w3.org/2000/svg" xmlns:xlink="http://www.w3.org/1999/xlink" version="1.1" x="0" y="0" viewBox="6.300000190734863 11.5 87.39999389648438 77" style="enable-background:new 0 0 100 100;" xml:space="preserve" height="212.51383821443585" width="241.21698912805405" class="icon-icon-0" data-fill-palette-color="accent" id="icon-0"><path d="M72.3 12.3L72.3 12.3 72.3 12.3l-0.4-0.8H28.2L6.3 50l21.8 38.5h43.7L93.7 50 72.3 12.3zM33.3 25.3L9.9 47.7l18.6-32.8L33.3 25.3zM70.7 14.8l6.4 35.7L36.9 25.8 70.7 14.8zM35.5 27.3l41 25.2-41 23.3V27.3zM77 54.5l-7.2 30.8-32.6-8.1L77 54.5zM33.5 75L9.9 50.5l23.6-22.7V75zM33.2 77.6l-4.6 7.7L11.5 55.1 33.2 77.6zM35 78.6l31.4 7.9H30.2L35 78.6zM79.3 53.3l11.6-2.5L72.1 84 79.3 53.3zM90.7 48.9l-11.4 2.5-5.9-33.1L90.7 48.9zM35 24.3l-5-10.8h38.2L35 24.3z" fill="#755bb4" data-fill-palette-color="accent"></path></svg></g></svg></g><g></g></svg></g><defs></defs></svg><rect width="239.8541185315272" height="247.2" fill="none" stroke="none" visibility="hidden"></rect></g></svg></g></svg>